# xmcd
#
# Track frame offsets:
#  150
#  17992
#  41632
#  53685
#  70052
#  88870
#  107865
#  124605
#  136090
#  155235
#  175775
#  188667
#  202587
#  225777
#  246827
#  257672
#  270870
#
# Disc length: 4134 seconds
#
# Revision: 1
# Processed by: cddbd v1.5.2PL0 Copyright (c) Steve Scherf et al.
# Submitted via: Collectorz.com_Music_Collector 6.10
#
DISCID=d7102411
DTITLE=Various Artist - Blues Routes
DYEAR=1999
DGENRE=Blues
TTITLE0=Gandy Dancers - Rooster Call
TTITLE1=Cephas, John - Wiggins, Phil - John Henry
TTITLE2=Williams, Warner - Step It Up and Go
TTITLE3=Johnson, Luther "Guitar Junior" - Perkins, Willie "Pinetop" - Flipping and Flopping
TTITLE4=Bowser, Erbie - Bell, T.D. - the Blues Specialsts - Twenty Four Hours a Day
TTITLE5=Lockwood, Robert Jr. - Little Queen of Spades
TTITLE6=Baker, Etta - One Dime Blues
TTITLE7=Jay, Abner - Bluetail Fly
TTITLE8=Vappie, Don - the Creole Jazz Serenaders - Gut Bucket Blues
TTITLE9=Williams, Claude - That Certain Someone
TTITLE10=Price, Sammy - Harlem Parlor Blues
TTITLE11=Laury, Booker T. - Early In The Morning
TTITLE12=White Cloud Hunters Mardi Gras Indians - Sew, Sew, Sew
TTITLE13=Rapper Dee - C.J. - Five Gallons of Fun - My Mind Has No Colour/ Do it the Go-Go Way
TTITLE14=Georgia Sea Island Singers - Hambone, Where You Been?
TTITLE15=Chavis, Boozoo - the Magic Sounds - Uncle Bud
TTITLE16=Walker, Joe Louis - the Boss Talkers - Bluesifyin
EXTD=
EXTT0=
EXTT1=
EXTT2=
EXTT3=
EXTT4=
EXTT5=
EXTT6=
EXTT7=
EXTT8=
EXTT9=
EXTT10=
EXTT11=
EXTT12=
EXTT13=
EXTT14=
EXTT15=
EXTT16=
PLAYORDER=
